<mxfile host="Electron" modified="2024-05-26T11:09:22.547Z" agent="Mozilla/5.0 (Windows NT 10.0; Win64; x64) AppleWebKit/537.36 (KHTML, like Gecko) draw.io/22.1.18 Chrome/120.0.6099.199 Electron/28.1.2 Safari/537.36" etag="aOU9aYXKvgyh5Wo0xOZI" version="22.1.18" type="device">
  <diagram name="第 1 页" id="0D-6ho3QVZPa3TV-cfUC">
    <mxGraphModel dx="2048" dy="823" grid="1" gridSize="10" guides="1" tooltips="1" connect="1" arrows="1" fold="1" page="1" pageScale="1" pageWidth="827" pageHeight="1169" math="0" shadow="0">
      <root>
        <mxCell id="0" />
        <mxCell id="1" parent="0" />
        <mxCell id="resjPGoqkjrxxCYjyRdv-1" value="" style="endArrow=classic;html=1;rounded=0;" parent="1" edge="1">
          <mxGeometry width="50" height="50" relative="1" as="geometry">
            <mxPoint x="560" y="720" as="sourcePoint" />
            <mxPoint x="960" y="720" as="targetPoint" />
          </mxGeometry>
        </mxCell>
        <mxCell id="resjPGoqkjrxxCYjyRdv-2" value="" style="endArrow=classic;html=1;rounded=0;" parent="1" edge="1">
          <mxGeometry width="50" height="50" relative="1" as="geometry">
            <mxPoint x="600" y="760" as="sourcePoint" />
            <mxPoint x="600" y="440" as="targetPoint" />
          </mxGeometry>
        </mxCell>
        <mxCell id="resjPGoqkjrxxCYjyRdv-3" value="" style="endArrow=none;html=1;rounded=0;" parent="1" edge="1">
          <mxGeometry width="50" height="50" relative="1" as="geometry">
            <mxPoint x="920" y="680" as="sourcePoint" />
            <mxPoint x="640" y="480" as="targetPoint" />
          </mxGeometry>
        </mxCell>
        <mxCell id="resjPGoqkjrxxCYjyRdv-4" value="" style="endArrow=none;html=1;rounded=0;" parent="1" edge="1">
          <mxGeometry width="50" height="50" relative="1" as="geometry">
            <mxPoint x="760" y="720" as="sourcePoint" />
            <mxPoint x="760" y="480" as="targetPoint" />
          </mxGeometry>
        </mxCell>
        <mxCell id="resjPGoqkjrxxCYjyRdv-5" value="&lt;font style=&quot;font-size: 18px;&quot;&gt;&lt;font style=&quot;font-size: 18px;&quot;&gt;实际汇率，&lt;/font&gt;ε&lt;/font&gt;" style="text;html=1;align=center;verticalAlign=middle;resizable=0;points=[];autosize=1;strokeColor=none;fillColor=none;" parent="1" vertex="1">
          <mxGeometry x="480" y="443" width="120" height="40" as="geometry" />
        </mxCell>
        <mxCell id="resjPGoqkjrxxCYjyRdv-6" value="&lt;span style=&quot;font-size: 18px;&quot;&gt;净出口，NX&lt;/span&gt;" style="text;html=1;align=center;verticalAlign=middle;resizable=0;points=[];autosize=1;strokeColor=none;fillColor=none;" parent="1" vertex="1">
          <mxGeometry x="810" y="720" width="120" height="40" as="geometry" />
        </mxCell>
        <mxCell id="resjPGoqkjrxxCYjyRdv-7" value="&lt;font style=&quot;font-size: 18px;&quot;&gt;NX(ε)&lt;/font&gt;" style="text;html=1;align=center;verticalAlign=middle;resizable=0;points=[];autosize=1;strokeColor=none;fillColor=none;" parent="1" vertex="1">
          <mxGeometry x="885" y="670" width="70" height="40" as="geometry" />
        </mxCell>
        <mxCell id="resjPGoqkjrxxCYjyRdv-8" value="&lt;font style=&quot;font-size: 18px;&quot;&gt;CF&lt;/font&gt;" style="text;html=1;align=center;verticalAlign=middle;resizable=0;points=[];autosize=1;strokeColor=none;fillColor=none;" parent="1" vertex="1">
          <mxGeometry x="760" y="470" width="50" height="40" as="geometry" />
        </mxCell>
        <mxCell id="resjPGoqkjrxxCYjyRdv-9" value="" style="endArrow=none;dashed=1;html=1;rounded=0;" parent="1" edge="1">
          <mxGeometry width="50" height="50" relative="1" as="geometry">
            <mxPoint x="600" y="570" as="sourcePoint" />
            <mxPoint x="760" y="570" as="targetPoint" />
          </mxGeometry>
        </mxCell>
        <mxCell id="resjPGoqkjrxxCYjyRdv-10" value="&lt;font style=&quot;font-size: 18px;&quot;&gt;均衡的实际汇率&lt;/font&gt;" style="text;html=1;align=center;verticalAlign=middle;resizable=0;points=[];autosize=1;strokeColor=none;fillColor=none;" parent="1" vertex="1">
          <mxGeometry x="450" y="545" width="150" height="40" as="geometry" />
        </mxCell>
        <mxCell id="resjPGoqkjrxxCYjyRdv-11" value="" style="endArrow=classic;html=1;rounded=0;" parent="1" edge="1">
          <mxGeometry width="50" height="50" relative="1" as="geometry">
            <mxPoint x="80" y="360" as="sourcePoint" />
            <mxPoint x="480" y="360" as="targetPoint" />
          </mxGeometry>
        </mxCell>
        <mxCell id="resjPGoqkjrxxCYjyRdv-12" value="" style="endArrow=classic;html=1;rounded=0;" parent="1" edge="1">
          <mxGeometry width="50" height="50" relative="1" as="geometry">
            <mxPoint x="120" y="400" as="sourcePoint" />
            <mxPoint x="120" y="80" as="targetPoint" />
          </mxGeometry>
        </mxCell>
        <mxCell id="resjPGoqkjrxxCYjyRdv-13" value="" style="endArrow=none;html=1;rounded=0;" parent="1" edge="1">
          <mxGeometry width="50" height="50" relative="1" as="geometry">
            <mxPoint x="440" y="320" as="sourcePoint" />
            <mxPoint x="160" y="120" as="targetPoint" />
          </mxGeometry>
        </mxCell>
        <mxCell id="resjPGoqkjrxxCYjyRdv-14" value="" style="endArrow=none;html=1;rounded=0;" parent="1" edge="1">
          <mxGeometry width="50" height="50" relative="1" as="geometry">
            <mxPoint x="270" y="360" as="sourcePoint" />
            <mxPoint x="270" y="120" as="targetPoint" />
          </mxGeometry>
        </mxCell>
        <mxCell id="resjPGoqkjrxxCYjyRdv-15" value="&lt;font style=&quot;font-size: 18px;&quot;&gt;实际利率，r&lt;/font&gt;" style="text;html=1;align=center;verticalAlign=middle;resizable=0;points=[];autosize=1;strokeColor=none;fillColor=none;" parent="1" vertex="1">
          <mxGeometry y="83" width="120" height="40" as="geometry" />
        </mxCell>
        <mxCell id="resjPGoqkjrxxCYjyRdv-16" value="&lt;span style=&quot;font-size: 18px;&quot;&gt;可贷资金，S，I+CF&lt;/span&gt;" style="text;html=1;align=center;verticalAlign=middle;resizable=0;points=[];autosize=1;strokeColor=none;fillColor=none;" parent="1" vertex="1">
          <mxGeometry x="300" y="360" width="180" height="40" as="geometry" />
        </mxCell>
        <mxCell id="resjPGoqkjrxxCYjyRdv-17" value="&lt;font style=&quot;font-size: 18px;&quot;&gt;I(r) + CF(r)&lt;/font&gt;" style="text;html=1;align=center;verticalAlign=middle;resizable=0;points=[];autosize=1;strokeColor=none;fillColor=none;" parent="1" vertex="1">
          <mxGeometry x="385" y="310" width="110" height="40" as="geometry" />
        </mxCell>
        <mxCell id="resjPGoqkjrxxCYjyRdv-18" value="&lt;font style=&quot;font-size: 18px;&quot;&gt;S&lt;/font&gt;" style="text;html=1;align=center;verticalAlign=middle;resizable=0;points=[];autosize=1;strokeColor=none;fillColor=none;" parent="1" vertex="1">
          <mxGeometry x="250" y="83" width="40" height="40" as="geometry" />
        </mxCell>
        <mxCell id="resjPGoqkjrxxCYjyRdv-19" value="" style="endArrow=none;dashed=1;html=1;rounded=0;" parent="1" edge="1">
          <mxGeometry width="50" height="50" relative="1" as="geometry">
            <mxPoint x="120" y="200" as="sourcePoint" />
            <mxPoint x="760" y="200" as="targetPoint" />
          </mxGeometry>
        </mxCell>
        <mxCell id="resjPGoqkjrxxCYjyRdv-21" value="" style="endArrow=classic;html=1;rounded=0;" parent="1" edge="1">
          <mxGeometry width="50" height="50" relative="1" as="geometry">
            <mxPoint x="560" y="360" as="sourcePoint" />
            <mxPoint x="960" y="360" as="targetPoint" />
          </mxGeometry>
        </mxCell>
        <mxCell id="resjPGoqkjrxxCYjyRdv-22" value="" style="endArrow=classic;html=1;rounded=0;" parent="1" edge="1">
          <mxGeometry width="50" height="50" relative="1" as="geometry">
            <mxPoint x="600" y="400" as="sourcePoint" />
            <mxPoint x="600" y="80" as="targetPoint" />
          </mxGeometry>
        </mxCell>
        <mxCell id="resjPGoqkjrxxCYjyRdv-23" value="" style="endArrow=none;html=1;rounded=0;" parent="1" edge="1">
          <mxGeometry width="50" height="50" relative="1" as="geometry">
            <mxPoint x="930" y="323" as="sourcePoint" />
            <mxPoint x="650" y="123" as="targetPoint" />
          </mxGeometry>
        </mxCell>
        <mxCell id="resjPGoqkjrxxCYjyRdv-24" value="&lt;span style=&quot;font-size: 18px;&quot;&gt;资本净流出，CF&lt;/span&gt;" style="text;html=1;align=center;verticalAlign=middle;resizable=0;points=[];autosize=1;strokeColor=none;fillColor=none;" parent="1" vertex="1">
          <mxGeometry x="785" y="360" width="160" height="40" as="geometry" />
        </mxCell>
        <mxCell id="resjPGoqkjrxxCYjyRdv-25" value="&lt;font style=&quot;font-size: 18px;&quot;&gt;实际利率，r&lt;/font&gt;" style="text;html=1;align=center;verticalAlign=middle;resizable=0;points=[];autosize=1;strokeColor=none;fillColor=none;" parent="1" vertex="1">
          <mxGeometry x="480" y="83" width="120" height="40" as="geometry" />
        </mxCell>
        <mxCell id="resjPGoqkjrxxCYjyRdv-26" value="&lt;font style=&quot;font-size: 18px;&quot;&gt;CF(r)&lt;/font&gt;" style="text;html=1;align=center;verticalAlign=middle;resizable=0;points=[];autosize=1;strokeColor=none;fillColor=none;" parent="1" vertex="1">
          <mxGeometry x="860" y="310" width="70" height="40" as="geometry" />
        </mxCell>
        <mxCell id="resjPGoqkjrxxCYjyRdv-27" value="" style="endArrow=none;dashed=1;html=1;rounded=0;" parent="1" edge="1">
          <mxGeometry width="50" height="50" relative="1" as="geometry">
            <mxPoint x="760" y="480" as="sourcePoint" />
            <mxPoint x="760" y="200" as="targetPoint" />
          </mxGeometry>
        </mxCell>
        <mxCell id="resjPGoqkjrxxCYjyRdv-28" value="&lt;font style=&quot;font-size: 18px;&quot;&gt;均衡的实际利率&lt;/font&gt;" style="text;html=1;align=center;verticalAlign=middle;resizable=0;points=[];autosize=1;strokeColor=none;fillColor=none;" parent="1" vertex="1">
          <mxGeometry x="-40" y="180" width="150" height="40" as="geometry" />
        </mxCell>
        <mxCell id="resjPGoqkjrxxCYjyRdv-29" value="&lt;b&gt;(a) 可贷资金市场&lt;/b&gt;" style="text;html=1;align=center;verticalAlign=middle;resizable=0;points=[];autosize=1;strokeColor=none;fillColor=none;" parent="1" vertex="1">
          <mxGeometry x="215" y="410" width="110" height="30" as="geometry" />
        </mxCell>
        <mxCell id="resjPGoqkjrxxCYjyRdv-30" value="&lt;b&gt;(b) 资本净流出&lt;/b&gt;" style="text;html=1;align=center;verticalAlign=middle;resizable=0;points=[];autosize=1;strokeColor=none;fillColor=none;" parent="1" vertex="1">
          <mxGeometry x="630" y="410" width="100" height="30" as="geometry" />
        </mxCell>
        <mxCell id="resjPGoqkjrxxCYjyRdv-31" value="&lt;b&gt;(c) 外汇市场&lt;/b&gt;" style="text;html=1;align=center;verticalAlign=middle;resizable=0;points=[];autosize=1;strokeColor=none;fillColor=none;" parent="1" vertex="1">
          <mxGeometry x="715" y="770" width="90" height="30" as="geometry" />
        </mxCell>
      </root>
    </mxGraphModel>
  </diagram>
</mxfile>
